<svg xmlns="http://www.w3.org/2000/svg" viewBox="0 0 64 64">
  <rect width="64" height="64" rx="12" fill="#181717"/>
  <path
    fill="#fff"
    d="M32 10.2c-12.2 0-22.1 9.9-22.1 22.1 0 9.8 6.3 18 15.1 21 .9.2 1.2-.4 1.2-.9v-3.8c-6.2 1.3-7.5-2.6-7.5-2.6-1-2.6-2.5-3.3-2.5-3.3-2-1.4.2-1.4.2-1.4 2.2.2 3.4 2.3 3.4 2.3 2 3.4 5.2 2.4 6.5 1.9.2-1.4.8-2.4 1.4-3-4.9-.6-10.1-2.5-10.1-11 0-2.4.9-4.4 2.3-6-.2-.6-1-2.9.2-5.9 0 0 1.9-.6 6.1 2.3 1.8-.5 3.7-.8 5.6-.8s3.8.3 5.6.8c4.2-2.9 6.1-2.3 6.1-2.3 1.2 3 .4 5.3.2 5.9 1.4 1.5 2.3 3.6 2.3 6 0 8.6-5.2 10.4-10.1 11 .8.7 1.5 2 1.5 4.1v6.1c0 .5.3 1.1 1.2.9 8.8-3 15.1-11.3 15.1-21 0-12.5-9.9-22.4-22.1-22.4z"
  />
</svg>
